<svg width="784" height="693" viewBox="0 0 784 693" fill="none" xmlns="http://www.w3.org/2000/svg">
<path fill-rule="evenodd" clip-rule="evenodd" d="M316 502.5C258 607.3 81.5 672.834 0.5 692.501C72.3333 657.501 241.7 573 274.5 473C274.5 473 133 594 49 616.001C175.5 548.772 190.5 488 218.5 412.5C218.5 412.5 132.469 411.954 148 274C156.5 198.5 214.5 111.5 316 166.5C316 166.5 289.112 15.3254 423 1.5C515 -7.99996 589.667 83.5002 573.5 113.5C573.5 113.5 673.256 88.4937 711 137.5C773 218 720.5 292.5 720.5 292.5C720.5 292.5 804.5 367.3 778.5 436.5C752.5 505.7 701.5 543.001 602.5 520.001C622.5 608.001 497.5 624.001 433.5 616.001C323.853 602.295 316 549 316 502.5ZM520.5 459.94C643 388.44 638.5 301.44 611.5 223.5C655.5 271 711 399.94 520.5 459.94ZM348.5 502.5C348.5 502.5 533.5 516.5 507 337C507 337 591.187 527 348.5 502.5Z" fill="#D9D9D9" stroke="black"/>
</svg>
